<svg width="48" height="48" viewBox="0 0 48 48" fill="none" xmlns="http://www.w3.org/2000/svg">
<rect x="0.5" y="0.5" width="47" height="47" rx="3.5" stroke="#D3D3D3"/>
<g clip-path="url(#clip0_1_98)">
<path d="M21.3623 23.1722H19.7071C19.4788 23.1722 19.2933 23.3577 19.2933 23.586V23.9998H21.7761V23.586C21.7761 23.3581 21.5908 23.1722 21.3623 23.1722Z" fill="#343A3F"/>
<path d="M25.914 19.4482H25.0864V22.3447C25.0864 23.6493 24.5315 24.8241 23.6488 25.6549H25.914V19.4482Z" fill="#343A3F"/>
<path d="M18.294 30.3759L19.7886 29.379L17.9849 28.1767L17.6915 28.266L18.294 30.3759Z" fill="#343A3F"/>
<path d="M24.6238 26.4825H23.4313V27.4119L24.0681 27.5939L24.6238 26.4825Z" fill="#343A3F"/>
<path d="M24.2588 19.4482H16.8105V22.3447C16.8105 24.3982 18.4811 26.0687 20.5347 26.0687C22.5883 26.0687 24.2588 24.3982 24.2588 22.3447V19.4482ZM18.0519 20.6895C18.0519 20.4612 18.2374 20.2757 18.4657 20.2757C18.6942 20.2757 18.8795 20.4612 18.8795 20.6895C18.8795 20.9178 18.6942 21.1033 18.4657 21.1033C18.2374 21.1033 18.0519 20.9184 18.0519 20.6895ZM22.6037 24.8274H18.4657V23.586C18.4657 22.9017 19.0228 22.3447 19.7071 22.3447H21.3623C22.0466 22.3447 22.6037 22.9017 22.6037 23.586V24.8274ZM22.6037 21.1033C22.3753 21.1033 22.1899 20.9178 22.1899 20.6895C22.1899 20.4612 22.3753 20.2757 22.6037 20.2757C22.8322 20.2757 23.0174 20.4612 23.0174 20.6895C23.0174 20.9184 22.8322 21.1033 22.6037 21.1033Z" fill="#343A3F"/>
<path d="M27.5273 12.4138H27.1553C26.156 12.4138 25.3201 13.126 25.1282 14.0689H25.5001C26.4995 14.0689 27.3353 13.3571 27.5273 12.4138Z" fill="#343A3F"/>
<path d="M26.7416 16.5516H26.3575L14.3278 17.754V18.6206H26.7416V16.5516Z" fill="#343A3F"/>
<path d="M23.0174 15.3103C23.0174 14.626 23.5745 14.0689 24.2588 14.0689C24.2699 14.0689 24.2804 14.0718 24.2915 14.0722C24.2923 14.0653 24.2936 14.0586 24.2948 14.0516C23.552 12.7857 22.1997 12 20.725 12C19.0205 12 17.5094 13.0229 16.8764 14.6056C16.5677 15.377 16.1662 16.1067 15.6896 16.7862L23.2524 16.0316C23.1059 15.8279 23.0174 15.58 23.0174 15.3103Z" fill="#343A3F"/>
<path d="M24.6726 15.3103C24.6726 15.5388 24.4873 15.7241 24.2588 15.7241C24.0302 15.7241 23.845 15.5388 23.845 15.3103C23.845 15.0818 24.0302 14.8965 24.2588 14.8965C24.4873 14.8965 24.6726 15.0818 24.6726 15.3103Z" fill="#343A3F"/>
<path d="M21.2809 29.379L22.7754 30.3759L23.3804 28.2581L23.0878 28.1744L21.2809 29.379Z" fill="#343A3F"/>
<path d="M25.914 26.4825H25.5491L24.8779 27.8253L25.5204 28.0085L25.6215 27.6378L28.0711 28.2502L27.9238 28.8381C28.2796 29.0723 28.5764 29.375 28.794 29.7277L29.98 27.3555L26.7097 25.8689C26.6145 26.2215 26.2955 26.4825 25.914 26.4825Z" fill="#343A3F"/>
<path d="M27.6942 29.7005C27.301 31.1218 26.7013 32.458 25.9139 33.6783V36H28.3967V31.2518C28.3967 30.6452 28.1352 30.087 27.6942 29.7005Z" fill="#343A3F"/>
<path d="M25.0864 35.9996V34.8298C24.7641 35.2353 24.4251 35.6288 24.0586 36H25.0864V35.9996Z" fill="#343A3F"/>
<path d="M27.0672 28.8527L26.2065 28.6375L26.158 28.8155C25.4264 31.4976 23.9472 33.8983 21.8807 35.7583L21.6125 35.9996H22.8531C24.8952 34.1743 26.3277 31.8108 26.9931 29.1497L27.0672 28.8527Z" fill="#343A3F"/>
<path d="M14.1403 29.3439C13.2626 29.6104 12.6726 30.406 12.6726 31.3239V36H15.1554V32.8491C15.1554 31.6068 14.9513 30.389 14.5488 29.2206L14.1403 29.3439Z" fill="#343A3F"/>
<path d="M25.2949 28.805L24.176 28.4852L23.2595 31.6928L20.9485 30.1524V35.4844L21.3271 35.1435C23.2219 33.4383 24.5866 31.2489 25.2949 28.805Z" fill="#343A3F"/>
<path d="M16.899 28.5064L15.3402 28.9798C15.7661 30.226 15.9829 31.5245 15.9829 32.8485V35.9996H20.1209V30.1524L17.8098 31.6928L16.899 28.5064Z" fill="#343A3F"/>
<path d="M15.983 22.3447V19.4482H15.1554V25.6549H17.4205C16.5378 24.8245 15.983 23.6493 15.983 22.3447Z" fill="#343A3F"/>
<path d="M22.6036 26.394C21.9821 26.713 21.2798 26.8963 20.5347 26.8963C19.7895 26.8963 19.0872 26.7126 18.4657 26.394V27.5024L20.5347 28.8816L22.6036 27.5024V26.394Z" fill="#343A3F"/>
<path d="M33.3635 20.6212L32.4817 18.8382L30.9747 21.4476L31.4295 23.1437L30.1352 25.3852L27.5952 24.2134L29.0833 21.6359L30.7789 21.1815L32.2856 18.5717L30.3006 18.7L29.4193 16.9165L27.9122 19.5263L28.3666 21.2217L26.8404 23.8648L26.7416 23.819V24.9747L30.6876 26.7684L31.1464 25.8519L30.8898 25.7335L32.1465 23.5575L33.8419 23.1027L35.3488 20.4933L33.3635 20.6212Z" fill="#343A3F"/>
</g>
<defs>
<clipPath id="clip0_1_98">
<rect width="24" height="24" fill="white" transform="translate(12 12)"/>
</clipPath>
</defs>
</svg>
