<svg width="48" height="48" viewBox="0 0 48 48" fill="none" xmlns="http://www.w3.org/2000/svg">
<rect x="0.5" y="0.5" width="47" height="47" rx="3.5" stroke="#D3D3D3"/>
<path d="M29.0396 14.8001C28.0078 14.8162 26.9985 15.1042 26.1136 15.6351C25.2287 16.166 24.4996 16.921 23.9999 17.8239C23.5002 16.921 22.7711 16.166 21.8862 15.6351C21.0014 15.1042 19.9921 14.8162 18.9603 14.8001C17.3155 14.8716 15.7658 15.5911 14.6498 16.8015C13.5338 18.0119 12.9422 19.6148 13.0043 21.26C13.0043 25.4264 17.3897 29.9768 21.0678 33.062C21.889 33.7521 22.9273 34.1304 23.9999 34.1304C25.0726 34.1304 26.1109 33.7521 26.9321 33.062C30.6101 29.9768 34.9955 25.4264 34.9955 21.26C35.0576 19.6148 34.466 18.0119 33.35 16.8015C32.2341 15.5911 30.6844 14.8716 29.0396 14.8001Z" fill="#343A3F"/>
</svg>
