<svg width="48" height="48" viewBox="0 0 48 48" fill="none" xmlns="http://www.w3.org/2000/svg">
<rect x="0.5" y="0.5" width="47" height="47" rx="3.5" stroke="#D3D3D3"/>
<g clip-path="url(#clip0_1_104)">
<path d="M12.7031 22.1939H12V28.3633C12.9248 28.4212 13.7878 28.7109 14.5312 29.1751V22.1939H12.7031Z" fill="#343A3F"/>
<path d="M31.5619 14.5467H16.4381C13.9909 14.5467 12 16.5376 12 18.9848V20.7877H12.7031H15.9375H21.1524V19.483H26.8476V20.7877H32.0625H35.2969H36V18.9848C36 16.5376 34.0091 14.5467 31.5619 14.5467Z" fill="#343A3F"/>
<path d="M26.8476 22.1939V22.9733C26.8476 23.2286 26.8133 23.4759 26.75 23.7115H32.0625V22.1939H26.8476Z" fill="#343A3F"/>
<path d="M35.2969 22.1939H33.4688V29.1751C34.2122 28.7109 35.0752 28.4212 36 28.3633V22.1939H35.2969Z" fill="#343A3F"/>
<path d="M25.8704 25.1178C25.3696 25.5551 24.7155 25.8209 24 25.8209C23.2845 25.8209 22.6304 25.5551 22.1296 25.1178H15.9375V30.4364C16.5997 31.2781 17.019 32.3193 17.0899 33.4533H30.9101C30.981 32.3192 31.4003 31.2781 32.0625 30.4364V25.1178H25.8704Z" fill="#343A3F"/>
<path d="M32.3208 33.4533H36V29.7741C34.047 29.9395 32.4863 31.5002 32.3208 33.4533Z" fill="#343A3F"/>
<path d="M12 29.7741V33.4533H15.6792C15.5137 31.5002 13.953 29.9395 12 29.7741Z" fill="#343A3F"/>
<path d="M21.1524 22.9733V22.1939H15.9375V23.7115H21.25C21.1868 23.4759 21.1524 23.2286 21.1524 22.9733Z" fill="#343A3F"/>
<path d="M22.5587 20.8893V22.9734C22.5587 23.7681 23.2053 24.4147 24 24.4147C24.7947 24.4147 25.4413 23.7682 25.4413 22.9734V20.8893H22.5587Z" fill="#343A3F"/>
</g>
<defs>
<clipPath id="clip0_1_104">
<rect width="24" height="24" fill="white" transform="translate(12 12)"/>
</clipPath>
</defs>
</svg>
