<svg width="48" height="48" viewBox="0 0 48 48" fill="none" xmlns="http://www.w3.org/2000/svg">
<rect width="48" height="48" rx="4" fill="#F4F4F4"/>
<path d="M35.53 13.9664C35.3401 13.7925 35.1073 13.6724 34.8556 13.6184C34.6039 13.5643 34.3423 13.5782 34.0978 13.6586L12.9952 20.6149C12.4201 20.8045 12.0301 21.3179 12.0017 21.9227C11.9732 22.5276 12.3133 23.0753 12.868 23.3181L18.0869 25.6014L19.6614 32.9043C19.7268 33.2077 19.8808 33.4779 20.207 33.561C20.537 33.6451 20.7701 33.4648 21.0163 33.2804L24.8891 30.3805L29.4167 34.0855C29.6804 34.3014 30.0027 34.414 30.3314 34.414C30.4906 34.4138 30.6487 34.3876 30.7995 34.3363C31.276 34.1747 31.6292 33.7858 31.7444 33.296L35.9616 15.3662C36.0204 15.1156 36.0114 14.8538 35.9356 14.6078C35.8597 14.3618 35.7197 14.1404 35.53 13.9664ZM21.3536 26.9099C21.3511 26.9159 21.3485 26.9228 21.3461 26.9311L20.4731 29.9811L19.4989 25.4626L26.1981 21.7405L21.5143 26.6379C21.4409 26.7152 21.3859 26.8082 21.3536 26.9099ZM21.6307 31.0595L22.0272 29.6741L22.4065 28.349L23.7654 29.461L21.6307 31.0595ZM34.5894 15.0434L30.3723 32.9732C30.3702 32.9821 30.3674 32.9944 30.3468 33.0014C30.3264 33.0083 30.3164 33.0004 30.3094 32.9946L25.3551 28.9405L25.3547 28.9402L23.0593 27.0618L30.4338 19.3509C30.5504 19.2291 30.6194 19.0694 30.6283 18.901C30.6372 18.7327 30.5854 18.5666 30.4824 18.4332C30.3793 18.2997 30.2318 18.2075 30.0666 18.1735C29.9015 18.1395 29.7296 18.1659 29.5822 18.2478L18.6626 24.3148L13.4331 22.0267C13.4171 22.0197 13.4084 22.0158 13.4096 21.9889C13.4109 21.962 13.42 21.959 13.4365 21.9535L34.5391 14.9973C34.5493 14.9939 34.5608 14.9901 34.5778 15.0056C34.5947 15.0211 34.5919 15.0329 34.5894 15.0434Z" fill="#343A3F"/>
</svg>
