<svg width="48" height="48" viewBox="0 0 48 48" fill="none" xmlns="http://www.w3.org/2000/svg">
<rect width="48" height="48" rx="4" fill="#F4F4F4"/>
<path fill-rule="evenodd" clip-rule="evenodd" d="M32.1298 15.2698C30.0248 13.1624 27.2254 12.0012 24.243 12C18.0975 12 13.096 17.0014 13.0935 23.1485C13.0927 25.1136 13.606 27.0317 14.5817 28.7226L13 34.5L18.9105 32.9495C20.5391 33.8379 22.3726 34.3061 24.2384 34.3066H24.2431C30.3879 34.3066 35.39 29.3048 35.3923 23.1574C35.3936 20.1782 34.2349 17.3771 32.1298 15.2698ZM24.243 32.4237H24.2391C22.5763 32.423 20.9456 31.9761 19.5225 31.132L19.1843 30.931L15.6769 31.8511L16.6131 28.4315L16.3926 28.0809C15.465 26.6054 14.9751 24.9001 14.976 23.1492C14.9779 18.0398 19.1351 13.883 24.2467 13.883C26.7219 13.8838 29.0487 14.849 30.7982 16.6006C32.5478 18.3522 33.5107 20.6805 33.5099 23.1567C33.5078 28.2664 29.3508 32.4237 24.243 32.4237ZM29.3261 25.4832C29.0476 25.3437 27.6778 24.67 27.4224 24.5769C27.1672 24.4839 26.9813 24.4376 26.7958 24.7164C26.61 24.9951 26.0762 25.6227 25.9136 25.8085C25.751 25.9945 25.5886 26.0178 25.31 25.8783C25.0314 25.7389 24.1338 25.4446 23.0696 24.4955C22.2415 23.7568 21.6825 22.8446 21.5199 22.5658C21.3576 22.2867 21.5185 22.1505 21.6421 21.9972C21.9436 21.6228 22.2456 21.2301 22.3385 21.0443C22.4314 20.8584 22.3849 20.6956 22.3151 20.5563C22.2456 20.4169 21.6885 19.0456 21.4564 18.4877C21.2301 17.9447 21.0006 18.018 20.8295 18.0095C20.6672 18.0014 20.4814 17.9997 20.2956 17.9997C20.1099 17.9997 19.808 18.0693 19.5526 18.3484C19.2973 18.6273 18.5777 19.3012 18.5777 20.6724C18.5777 22.0437 19.576 23.3683 19.7152 23.5543C19.8544 23.7402 21.6797 26.5541 24.4742 27.7607C25.1389 28.048 25.6577 28.2192 26.0624 28.3476C26.7298 28.5596 27.337 28.5297 27.8171 28.458C28.3524 28.378 29.4652 27.784 29.6975 27.1333C29.9296 26.4826 29.9296 25.9249 29.8598 25.8085C29.7904 25.6924 29.6046 25.6227 29.3261 25.4832Z" fill="#343A3F"/>
</svg>
